# xmcd
#
# Track frame offsets:
#	150
#	17642
#	34862
#	51180
#	65549
#	78511
#	96821
#	115343
#	130698
#	147885
#	166547
#	184327
#	198699
#
# Disc length: 3172 seconds
#
# Revision: 0
# Processed by: cddbd v1.5.2PL0 Copyright (c) Steve Scherf et al.
# Submitted via: audiograbber 1.83.01
#
DISCID=b00c620d
DTITLE=N8N - Who Is He?
DYEAR=2010
DGENRE=
TTITLE0=On and On
TTITLE1=Baby Blue
TTITLE2=Lost Soul
TTITLE3=Don't Let Me Go
TTITLE4=Relax and Watch Me Work
TTITLE5=Faithful
TTITLE6=Do It All (By Myself)
TTITLE7=Forgive Me
TTITLE8=Don't You Wanna
TTITLE9=Deejay
TTITLE10=Waste Of Time
TTITLE11=Calling You
TTITLE12=What's My Name (Who Is He?)
EXTD=
EXTT0=
EXTT1=
EXTT2=
EXTT3=
EXTT4=
EXTT5=
EXTT6=
EXTT7=
EXTT8=
EXTT9=
EXTT10=
EXTT11=
EXTT12=
PLAYORDER=
